<?xml version="1.0" standalone="no"?>
<!DOCTYPE svg PUBLIC "-//W3C//DTD SVG 20010904//EN"
 "http://www.w3.org/TR/2001/REC-SVG-20010904/DTD/svg10.dtd">
<svg version="1.0" xmlns="http://www.w3.org/2000/svg"
 width="1080.000000pt" height="1080.000000pt" viewBox="0 0 1080.000000 1080.000000"
 preserveAspectRatio="xMidYMid meet">
<metadata>
Created by potrace 1.14, written by Peter Selinger 2001-2017
</metadata>
<g transform="translate(0.000000,1080.000000) scale(0.100000,-0.100000)"
fill="#000000" stroke="none">
<path d="M0 5400 l0 -5400 5400 0 5400 0 0 5400 0 5400 -5400 0 -5400 0 0
-5400z m6832 1652 c67 -29 131 -97 157 -166 21 -57 21 -61 19 -836 -3 -774 -3
-779 -24 -807 -31 -41 -80 -66 -128 -66 -22 1 -328 78 -679 173 -441 118 -650
170 -677 168 l-40 -3 393 -394 394 -393 54 36 c252 167 598 75 733 -194 45
-90 60 -165 53 -265 -6 -92 -33 -172 -83 -247 l-35 -51 86 -87 c55 -56 85 -95
85 -109 0 -29 -52 -81 -81 -81 -14 0 -54 31 -113 89 l-91 89 -47 -24 c-137
-70 -319 -69 -460 2 -62 32 -156 119 -198 184 -53 82 -73 154 -74 265 -1 104
15 172 56 244 l19 34 -58 61 c-137 144 -719 726 -725 726 -22 0 8 -125 182
-776 104 -390 190 -722 190 -739 0 -43 -39 -105 -80 -126 -33 -18 -78 -19
-965 -19 -1055 0 -977 -6 -1025 82 l-24 46 12 144 c62 758 364 1440 890 2016
l95 104 -271 271 c-198 198 -272 278 -272 295 0 32 43 72 77 72 23 0 74 -46
299 -271 l271 -271 124 102 c462 379 1021 632 1589 719 74 11 146 23 160 25
56 10 166 -1 212 -22z"/>
</g>
</svg>
