<svg xmlns="http://www.w3.org/2000/svg" viewBox="0 0 314.19 301.4"><defs><style>.cls-1{fill:#0e1e41;}</style></defs><g id="Layer_2" data-name="Layer 2"><g id="Layer_1-2" data-name="Layer 1"><path class="cls-1" d="M312.84,291l-14.41-14.4A45.82,45.82,0,0,0,233.78,212l-71.14-71.14a13.77,13.77,0,0,1,8.46-.38L285,171a14,14,0,0,0,17.56-13.48V27.43A27.39,27.39,0,0,0,272.64.12,300.81,300.81,0,0,0,98.8,77L50.61,28.82a4.64,4.64,0,0,0-6.56,0l-2.44,2.44a4.66,4.66,0,0,0,0,6.56L89.55,85.76A300.91,300.91,0,0,0,0,286,14,14,0,0,0,14,300.68H174.18a14,14,0,0,0,13.47-17.56L154,157.56a13.8,13.8,0,0,1,0-7.33l71.39,71.4A45.83,45.83,0,0,0,288.8,285l15,15a4.65,4.65,0,0,0,6.57,0l2.44-2.43A4.67,4.67,0,0,0,312.84,291Z"/></g></g></svg>