<svg xmlns="http://www.w3.org/2000/svg" viewBox="0 0 424.59 465.38"><defs><style>.cls-1{font-size:77.84px;fill:#0d1929;font-family:MonumentExtended-Regular, Monument Extended;}.cls-2{letter-spacing:-0.02em;}.cls-3{letter-spacing:-0.01em;}.cls-4{letter-spacing:-0.01em;}.cls-5{letter-spacing:-0.12em;}.cls-6{fill:#0e1e41;}</style></defs><g id="Layer_2" data-name="Layer 2"><g id="Layer_1-2" data-name="Layer 1"><text class="cls-1" transform="translate(0 439.3)"><tspan class="cls-2">Re</tspan><tspan class="cls-3" x="135.2" y="0">o</tspan><tspan class="cls-4" x="203" y="0">p</tspan><tspan class="cls-3" x="271.96" y="0">l</tspan><tspan class="cls-5" x="291.11" y="0">e</tspan><tspan x="350.03" y="0">x</tspan></text><path class="cls-6" d="M368,291l-14.41-14.4A45.82,45.82,0,0,0,289,212l-71.15-71.14a13.78,13.78,0,0,1,8.46-.38L340.19,171a14,14,0,0,0,17.56-13.48V27.43A27.39,27.39,0,0,0,327.85.12,300.81,300.81,0,0,0,154,77L105.82,28.82a4.65,4.65,0,0,0-6.57,0l-2.44,2.44a4.66,4.66,0,0,0,0,6.56l47.94,47.94A300.91,300.91,0,0,0,55.22,286a14,14,0,0,0,13.94,14.66H229.38a14,14,0,0,0,13.47-17.56L209.21,157.56a13.9,13.9,0,0,1,0-7.33l71.4,71.4A45.83,45.83,0,0,0,344,285l15,15a4.64,4.64,0,0,0,6.56,0l2.44-2.43A4.67,4.67,0,0,0,368,291Z"/></g></g></svg>