<svg xmlns="http://www.w3.org/2000/svg" viewBox="0 0 911.21 950.72"><defs><style>.cls-1{fill:#0e1e41;}</style></defs><g id="Layer_2" data-name="Layer 2"><g id="Layer_1-2" data-name="Layer 1"><path class="cls-1" d="M122,113.47l-5.61-5.61A17.87,17.87,0,0,0,91.15,82.65L63.41,54.92a5.35,5.35,0,0,1,3.3-.15l44.4,11.9A5.44,5.44,0,0,0,118,61.41V10.69A10.67,10.67,0,0,0,106.3.05,117.27,117.27,0,0,0,38.52,30L19.73,11.24a1.8,1.8,0,0,0-2.56,0l-1,.95a1.82,1.82,0,0,0,0,2.56L34.91,33.44A117.31,117.31,0,0,0,0,111.52a5.44,5.44,0,0,0,5.43,5.71H67.91a5.43,5.43,0,0,0,5.25-6.84l-13.11-49a5.34,5.34,0,0,1,0-2.86L87.89,86.41a17.86,17.86,0,0,0,24.71,24.71l5.86,5.86a1.8,1.8,0,0,0,2.56,0l1-1A1.8,1.8,0,0,0,122,113.47Z"/><path class="cls-1" d="M253.42,113.47l-5.61-5.61A17.87,17.87,0,0,0,222.6,82.65L194.86,54.92a5.35,5.35,0,0,1,3.3-.15l44.4,11.9a5.44,5.44,0,0,0,6.85-5.26V10.69A10.67,10.67,0,0,0,237.75.05,117.27,117.27,0,0,0,170,30L151.19,11.24a1.8,1.8,0,0,0-2.56,0l-.95.95a1.8,1.8,0,0,0,0,2.56l18.68,18.69a117.35,117.35,0,0,0-34.9,78.08,5.44,5.44,0,0,0,5.43,5.71h62.47a5.44,5.44,0,0,0,5.26-6.84l-13.12-49a5.44,5.44,0,0,1,0-2.86l27.84,27.84a17.86,17.86,0,0,0,24.71,24.71l5.86,5.86a1.8,1.8,0,0,0,2.56,0l.95-1A1.8,1.8,0,0,0,253.42,113.47Z"/><path class="cls-1" d="M384.87,113.47l-5.61-5.61a17.87,17.87,0,0,0-25.21-25.21L326.32,54.92a5.32,5.32,0,0,1,3.29-.15L374,66.67a5.44,5.44,0,0,0,6.84-5.26V10.69A10.67,10.67,0,0,0,369.2.05a117.3,117.3,0,0,0-67.78,30L282.64,11.24a1.8,1.8,0,0,0-2.56,0l-.95.95a1.8,1.8,0,0,0,0,2.56l18.69,18.69a117.32,117.32,0,0,0-34.91,78.08,5.44,5.44,0,0,0,5.44,5.71h62.46a5.44,5.44,0,0,0,5.26-6.84L323,61.43a5.44,5.44,0,0,1,0-2.86l27.84,27.84a17.86,17.86,0,0,0,24.71,24.71l5.86,5.86a1.8,1.8,0,0,0,2.56,0l.95-1A1.8,1.8,0,0,0,384.87,113.47Z"/><path class="cls-1" d="M516.33,113.47l-5.62-5.61A17.87,17.87,0,0,0,485.5,82.65L457.77,54.92a5.32,5.32,0,0,1,3.29-.15l44.41,11.9a5.45,5.45,0,0,0,6.85-5.26V10.69A10.68,10.68,0,0,0,500.66.05a117.27,117.27,0,0,0-67.78,30L414.09,11.24a1.8,1.8,0,0,0-2.56,0l-.95.95a1.8,1.8,0,0,0,0,2.56l18.69,18.69a117.32,117.32,0,0,0-34.91,78.08,5.44,5.44,0,0,0,5.44,5.71h62.46a5.44,5.44,0,0,0,5.26-6.84l-13.12-49a5.33,5.33,0,0,1,0-2.86l27.83,27.84A17.86,17.86,0,0,0,507,111.12l5.87,5.86a1.8,1.8,0,0,0,2.56,0l1-1A1.82,1.82,0,0,0,516.33,113.47Z"/><path class="cls-1" d="M647.78,113.47l-5.62-5.61A17.87,17.87,0,0,0,617,82.65L589.22,54.92a5.34,5.34,0,0,1,3.3-.15l44.4,11.9a5.44,5.44,0,0,0,6.85-5.26V10.69A10.67,10.67,0,0,0,632.11.05a117.27,117.27,0,0,0-67.78,30L545.54,11.24a1.8,1.8,0,0,0-2.56,0l-1,.95a1.82,1.82,0,0,0,0,2.56l18.69,18.69a117.32,117.32,0,0,0-34.91,78.08,5.45,5.45,0,0,0,5.44,5.71h62.47a5.43,5.43,0,0,0,5.25-6.84l-13.12-49a5.43,5.43,0,0,1,0-2.86l27.83,27.84a17.87,17.87,0,0,0,24.72,24.71l5.86,5.86a1.8,1.8,0,0,0,2.56,0l.95-1A1.82,1.82,0,0,0,647.78,113.47Z"/><path class="cls-1" d="M779.23,113.47l-5.62-5.61a17.87,17.87,0,0,0-25.2-25.21L720.67,54.92a5.34,5.34,0,0,1,3.3-.15l44.4,11.9a5.44,5.44,0,0,0,6.85-5.26V10.69A10.67,10.67,0,0,0,763.56.05a117.27,117.27,0,0,0-67.78,30L677,11.24a1.8,1.8,0,0,0-2.56,0l-.95.95a1.82,1.82,0,0,0,0,2.56l18.69,18.69a117.26,117.26,0,0,0-34.9,78.08,5.44,5.44,0,0,0,5.43,5.71h62.47a5.43,5.43,0,0,0,5.25-6.84l-13.12-49a5.43,5.43,0,0,1,0-2.86l27.84,27.84a17.86,17.86,0,0,0,24.71,24.71l5.86,5.86a1.8,1.8,0,0,0,2.56,0l1-1A1.82,1.82,0,0,0,779.23,113.47Z"/><path class="cls-1" d="M910.68,113.47l-5.61-5.61a17.87,17.87,0,0,0-25.21-25.21L852.12,54.92a5.35,5.35,0,0,1,3.3-.15l44.4,11.9a5.44,5.44,0,0,0,6.85-5.26V10.69A10.67,10.67,0,0,0,895,.05a117.27,117.27,0,0,0-67.78,30L808.44,11.24a1.8,1.8,0,0,0-2.56,0l-1,.95a1.82,1.82,0,0,0,0,2.56l18.69,18.69a117.31,117.31,0,0,0-34.9,78.08,5.44,5.44,0,0,0,5.43,5.71h62.47a5.43,5.43,0,0,0,5.25-6.84l-13.11-49a5.34,5.34,0,0,1,0-2.86L876.6,86.41a17.86,17.86,0,0,0,24.71,24.71l5.86,5.86a1.8,1.8,0,0,0,2.56,0l.95-1A1.8,1.8,0,0,0,910.68,113.47Z"/><path class="cls-1" d="M789.24,123.07l5.61,5.61a17.87,17.87,0,0,0,25.21,25.21l27.74,27.74a5.35,5.35,0,0,1-3.3.14l-44.4-11.89a5.43,5.43,0,0,0-6.85,5.25v50.72a10.67,10.67,0,0,0,11.66,10.64,117.27,117.27,0,0,0,67.78-30l18.79,18.79a1.82,1.82,0,0,0,2.56,0l1-.95a1.82,1.82,0,0,0,0-2.56L876.3,203.11A117.35,117.35,0,0,0,911.2,125a5.45,5.45,0,0,0-5.43-5.72H843.3a5.43,5.43,0,0,0-5.25,6.85l13.11,49a5.34,5.34,0,0,1,0,2.86l-27.84-27.84a17.87,17.87,0,0,0-24.71-24.71l-5.86-5.86a1.8,1.8,0,0,0-2.56,0l-1,1A1.8,1.8,0,0,0,789.24,123.07Z"/><path class="cls-1" d="M657.79,123.07l5.61,5.61a17.87,17.87,0,0,0,25.21,25.21l27.74,27.74a5.35,5.35,0,0,1-3.3.14l-44.41-11.89a5.43,5.43,0,0,0-6.84,5.25v50.72a10.67,10.67,0,0,0,11.66,10.64,117.27,117.27,0,0,0,67.78-30L760,225.31a1.82,1.82,0,0,0,2.56,0l.95-.95a1.8,1.8,0,0,0,0-2.56l-18.68-18.69A117.39,117.39,0,0,0,779.75,125a5.45,5.45,0,0,0-5.43-5.72H711.85a5.44,5.44,0,0,0-5.26,6.85l13.12,49a5.44,5.44,0,0,1,0,2.86l-27.84-27.84a17.87,17.87,0,0,0-24.71-24.71l-5.86-5.86a1.8,1.8,0,0,0-2.56,0l-1,1A1.8,1.8,0,0,0,657.79,123.07Z"/><path class="cls-1" d="M526.33,123.07l5.62,5.61a17.87,17.87,0,0,0,25.21,25.21l27.73,27.74a5.32,5.32,0,0,1-3.29.14l-44.41-11.89a5.43,5.43,0,0,0-6.84,5.25v50.72A10.67,10.67,0,0,0,542,236.49a117.3,117.3,0,0,0,67.78-30l18.78,18.79a1.82,1.82,0,0,0,2.56,0l1-.95a1.8,1.8,0,0,0,0-2.56l-18.69-18.69A117.36,117.36,0,0,0,648.3,125a5.45,5.45,0,0,0-5.44-5.72H580.4a5.44,5.44,0,0,0-5.26,6.85l13.12,49a5.44,5.44,0,0,1,0,2.86l-27.84-27.84a17.87,17.87,0,0,0-24.71-24.71l-5.87-5.86a1.79,1.79,0,0,0-2.55,0l-1,1A1.82,1.82,0,0,0,526.33,123.07Z"/><path class="cls-1" d="M394.88,123.07l5.62,5.61a17.86,17.86,0,0,0,25.2,25.21l27.74,27.74a5.32,5.32,0,0,1-3.29.14l-44.41-11.89a5.44,5.44,0,0,0-6.85,5.25v50.72a10.67,10.67,0,0,0,11.66,10.64,117.27,117.27,0,0,0,67.78-30l18.79,18.79a1.82,1.82,0,0,0,2.56,0l.95-.95a1.82,1.82,0,0,0,0-2.56l-18.69-18.69A117.36,117.36,0,0,0,516.85,125a5.45,5.45,0,0,0-5.44-5.72H449a5.44,5.44,0,0,0-5.26,6.85l13.12,49a5.33,5.33,0,0,1,0,2.86L429,150.13a17.87,17.87,0,0,0-24.71-24.71l-5.87-5.86a1.8,1.8,0,0,0-2.56,0l-.95,1A1.82,1.82,0,0,0,394.88,123.07Z"/><path class="cls-1" d="M263.43,123.07l5.62,5.61a17.86,17.86,0,0,0,25.2,25.21L322,181.63a5.35,5.35,0,0,1-3.3.14l-44.4-11.89a5.43,5.43,0,0,0-6.85,5.25v50.72a10.67,10.67,0,0,0,11.66,10.64,117.27,117.27,0,0,0,67.78-30l18.79,18.79a1.82,1.82,0,0,0,2.56,0l.95-.95a1.82,1.82,0,0,0,0-2.56l-18.69-18.69A117.36,117.36,0,0,0,385.4,125a5.45,5.45,0,0,0-5.44-5.72H317.49a5.44,5.44,0,0,0-5.25,6.85l13.12,49a5.43,5.43,0,0,1,0,2.86l-27.83-27.84a17.87,17.87,0,0,0-24.72-24.71l-5.86-5.86a1.8,1.8,0,0,0-2.56,0l-.95,1A1.82,1.82,0,0,0,263.43,123.07Z"/><path class="cls-1" d="M132,123.07l5.62,5.61a17.86,17.86,0,0,0,25.2,25.21l27.74,27.74a5.35,5.35,0,0,1-3.3.14l-44.4-11.89a5.43,5.43,0,0,0-6.85,5.25v50.72a10.67,10.67,0,0,0,11.66,10.64,117.27,117.27,0,0,0,67.78-30l18.79,18.79a1.82,1.82,0,0,0,2.56,0l.95-.95a1.82,1.82,0,0,0,0-2.56L219,203.11A117.3,117.3,0,0,0,253.94,125a5.45,5.45,0,0,0-5.43-5.72H186a5.44,5.44,0,0,0-5.25,6.85l13.12,49a5.43,5.43,0,0,1,0,2.86l-27.84-27.84a17.87,17.87,0,0,0-24.71-24.71l-5.86-5.86a1.8,1.8,0,0,0-2.56,0l-1,1A1.82,1.82,0,0,0,132,123.07Z"/><path class="cls-1" d="M.53,123.07l5.61,5.61a17.87,17.87,0,0,0,25.21,25.21l27.74,27.74a5.35,5.35,0,0,1-3.3.14l-44.4-11.89a5.43,5.43,0,0,0-6.85,5.25v50.72A10.67,10.67,0,0,0,16.2,236.49a117.27,117.27,0,0,0,67.78-30l18.79,18.79a1.82,1.82,0,0,0,2.56,0l1-.95a1.82,1.82,0,0,0,0-2.56L87.59,203.11A117.35,117.35,0,0,0,122.49,125a5.45,5.45,0,0,0-5.43-5.72H54.59a5.43,5.43,0,0,0-5.25,6.85l13.11,49a5.34,5.34,0,0,1,0,2.86L34.61,150.13A17.87,17.87,0,0,0,9.9,125.42L4,119.56a1.8,1.8,0,0,0-2.56,0l-.95,1A1.8,1.8,0,0,0,.53,123.07Z"/><path class="cls-1" d="M122,351.53l-5.61-5.61a17.87,17.87,0,0,0-25.21-25.21L63.41,293a5.35,5.35,0,0,1,3.3-.15l44.4,11.9a5.44,5.44,0,0,0,6.85-5.26V248.75a10.67,10.67,0,0,0-11.66-10.64,117.27,117.27,0,0,0-67.78,30L19.73,249.3a1.8,1.8,0,0,0-2.56,0l-1,.95a1.82,1.82,0,0,0,0,2.56L34.91,271.5A117.31,117.31,0,0,0,0,349.58a5.44,5.44,0,0,0,5.43,5.71H67.91a5.43,5.43,0,0,0,5.25-6.84l-13.11-49a5.34,5.34,0,0,1,0-2.86l27.84,27.84a17.86,17.86,0,0,0,24.71,24.71l5.86,5.86a1.8,1.8,0,0,0,2.56,0l1-1A1.8,1.8,0,0,0,122,351.53Z"/><path class="cls-1" d="M253.42,351.53l-5.61-5.61a17.87,17.87,0,0,0-25.21-25.21L194.86,293a5.35,5.35,0,0,1,3.3-.15l44.4,11.9a5.44,5.44,0,0,0,6.85-5.26V248.75a10.67,10.67,0,0,0-11.66-10.64,117.27,117.27,0,0,0-67.78,30L151.19,249.3a1.8,1.8,0,0,0-2.56,0l-.95.95a1.8,1.8,0,0,0,0,2.56l18.68,18.69a117.35,117.35,0,0,0-34.9,78.08,5.44,5.44,0,0,0,5.43,5.71h62.47a5.44,5.44,0,0,0,5.26-6.84l-13.12-49a5.44,5.44,0,0,1,0-2.86l27.84,27.84a17.86,17.86,0,0,0,24.71,24.71l5.86,5.86a1.8,1.8,0,0,0,2.56,0l.95-1A1.8,1.8,0,0,0,253.42,351.53Z"/><path class="cls-1" d="M384.87,351.53l-5.61-5.61a17.87,17.87,0,0,0-25.21-25.21L326.32,293a5.32,5.32,0,0,1,3.29-.15L374,304.73a5.44,5.44,0,0,0,6.84-5.26V248.75a10.67,10.67,0,0,0-11.66-10.64,117.3,117.3,0,0,0-67.78,30L282.64,249.3a1.8,1.8,0,0,0-2.56,0l-.95.95a1.8,1.8,0,0,0,0,2.56l18.69,18.69a117.32,117.32,0,0,0-34.91,78.08,5.44,5.44,0,0,0,5.44,5.71h62.46a5.44,5.44,0,0,0,5.26-6.84l-13.12-49a5.44,5.44,0,0,1,0-2.86l27.84,27.84a17.86,17.86,0,0,0,24.71,24.71l5.86,5.86a1.8,1.8,0,0,0,2.56,0l.95-1A1.8,1.8,0,0,0,384.87,351.53Z"/><path class="cls-1" d="M516.33,351.53l-5.62-5.61a17.87,17.87,0,0,0-25.21-25.21L457.77,293a5.32,5.32,0,0,1,3.29-.15l44.41,11.9a5.45,5.45,0,0,0,6.85-5.26V248.75a10.68,10.68,0,0,0-11.66-10.64,117.27,117.27,0,0,0-67.78,30L414.09,249.3a1.8,1.8,0,0,0-2.56,0l-.95.95a1.8,1.8,0,0,0,0,2.56l18.69,18.69a117.32,117.32,0,0,0-34.91,78.08,5.44,5.44,0,0,0,5.44,5.71h62.46a5.44,5.44,0,0,0,5.26-6.84l-13.12-49a5.33,5.33,0,0,1,0-2.86l27.83,27.84A17.86,17.86,0,0,0,507,349.18l5.87,5.86a1.8,1.8,0,0,0,2.56,0l1-1A1.82,1.82,0,0,0,516.33,351.53Z"/><path class="cls-1" d="M647.78,351.53l-5.62-5.61A17.87,17.87,0,0,0,617,320.71L589.22,293a5.34,5.34,0,0,1,3.3-.15l44.4,11.9a5.44,5.44,0,0,0,6.85-5.26V248.75a10.67,10.67,0,0,0-11.66-10.64,117.27,117.27,0,0,0-67.78,30L545.54,249.3a1.8,1.8,0,0,0-2.56,0l-1,.95a1.82,1.82,0,0,0,0,2.56l18.69,18.69a117.32,117.32,0,0,0-34.91,78.08,5.45,5.45,0,0,0,5.44,5.71h62.47a5.43,5.43,0,0,0,5.25-6.84l-13.12-49a5.43,5.43,0,0,1,0-2.86l27.83,27.84a17.87,17.87,0,0,0,24.72,24.71l5.86,5.86a1.8,1.8,0,0,0,2.56,0l.95-1A1.82,1.82,0,0,0,647.78,351.53Z"/><path class="cls-1" d="M779.23,351.53l-5.62-5.61a17.87,17.87,0,0,0-25.2-25.21L720.67,293a5.34,5.34,0,0,1,3.3-.15l44.4,11.9a5.44,5.44,0,0,0,6.85-5.26V248.75a10.67,10.67,0,0,0-11.66-10.64,117.27,117.27,0,0,0-67.78,30L677,249.3a1.8,1.8,0,0,0-2.56,0l-.95.95a1.82,1.82,0,0,0,0,2.56l18.69,18.69a117.26,117.26,0,0,0-34.9,78.08,5.44,5.44,0,0,0,5.43,5.71h62.47a5.43,5.43,0,0,0,5.25-6.84l-13.12-49a5.43,5.43,0,0,1,0-2.86l27.84,27.84a17.86,17.86,0,0,0,24.71,24.71l5.86,5.86a1.8,1.8,0,0,0,2.56,0l1-1A1.82,1.82,0,0,0,779.23,351.53Z"/><path class="cls-1" d="M910.68,351.53l-5.61-5.61a17.87,17.87,0,0,0-25.21-25.21L852.12,293a5.35,5.35,0,0,1,3.3-.15l44.4,11.9a5.44,5.44,0,0,0,6.85-5.26V248.75A10.67,10.67,0,0,0,895,238.11a117.27,117.27,0,0,0-67.78,30L808.44,249.3a1.8,1.8,0,0,0-2.56,0l-1,.95a1.82,1.82,0,0,0,0,2.56l18.69,18.69a117.31,117.31,0,0,0-34.9,78.08,5.44,5.44,0,0,0,5.43,5.71h62.47a5.43,5.43,0,0,0,5.25-6.84l-13.11-49a5.34,5.34,0,0,1,0-2.86l27.84,27.84a17.86,17.86,0,0,0,24.71,24.71l5.86,5.86a1.8,1.8,0,0,0,2.56,0l.95-1A1.8,1.8,0,0,0,910.68,351.53Z"/><path class="cls-1" d="M789.24,361.13l5.61,5.61A17.87,17.87,0,0,0,820.06,392l27.74,27.74a5.42,5.42,0,0,1-3.3.15l-44.4-11.9a5.43,5.43,0,0,0-6.85,5.25v50.72a10.67,10.67,0,0,0,11.66,10.64,117.21,117.21,0,0,0,67.78-30l18.79,18.79a1.82,1.82,0,0,0,2.56,0l1-.95a1.82,1.82,0,0,0,0-2.56L876.3,441.17a117.35,117.35,0,0,0,34.9-78.08,5.45,5.45,0,0,0-5.43-5.72H843.3a5.43,5.43,0,0,0-5.25,6.85l13.11,48.95a5.34,5.34,0,0,1,0,2.86l-27.84-27.84a17.87,17.87,0,0,0-24.71-24.71l-5.86-5.86a1.8,1.8,0,0,0-2.56,0l-1,.95A1.8,1.8,0,0,0,789.24,361.13Z"/><path class="cls-1" d="M657.79,361.13l5.61,5.61A17.87,17.87,0,0,0,688.61,392l27.74,27.74a5.42,5.42,0,0,1-3.3.15l-44.41-11.9a5.43,5.43,0,0,0-6.84,5.25v50.72a10.67,10.67,0,0,0,11.66,10.64,117.21,117.21,0,0,0,67.78-30L760,463.37a1.82,1.82,0,0,0,2.56,0l.95-.95a1.8,1.8,0,0,0,0-2.56l-18.68-18.69a117.39,117.39,0,0,0,34.9-78.08,5.45,5.45,0,0,0-5.43-5.72H711.85a5.44,5.44,0,0,0-5.26,6.85l13.12,48.95a5.44,5.44,0,0,1,0,2.86l-27.84-27.84a17.87,17.87,0,0,0-24.71-24.71l-5.86-5.86a1.8,1.8,0,0,0-2.56,0l-1,.95A1.8,1.8,0,0,0,657.79,361.13Z"/><path class="cls-1" d="M526.33,361.13l5.62,5.61A17.87,17.87,0,0,0,557.16,392l27.73,27.74a5.39,5.39,0,0,1-3.29.15l-44.41-11.9a5.43,5.43,0,0,0-6.84,5.25v50.72A10.67,10.67,0,0,0,542,474.55a117.24,117.24,0,0,0,67.78-30l18.78,18.79a1.82,1.82,0,0,0,2.56,0l1-.95a1.8,1.8,0,0,0,0-2.56l-18.69-18.69a117.36,117.36,0,0,0,34.91-78.08,5.45,5.45,0,0,0-5.44-5.72H580.4a5.44,5.44,0,0,0-5.26,6.85l13.12,48.95a5.44,5.44,0,0,1,0,2.86l-27.84-27.84a17.87,17.87,0,0,0-24.71-24.71l-5.87-5.86a1.79,1.79,0,0,0-2.55,0l-1,.95A1.82,1.82,0,0,0,526.33,361.13Z"/><path class="cls-1" d="M394.88,361.13l5.62,5.61A17.86,17.86,0,0,0,425.7,392l27.74,27.74a5.39,5.39,0,0,1-3.29.15l-44.41-11.9a5.44,5.44,0,0,0-6.85,5.25v50.72a10.67,10.67,0,0,0,11.66,10.64,117.21,117.21,0,0,0,67.78-30l18.79,18.79a1.82,1.82,0,0,0,2.56,0l.95-.95a1.82,1.82,0,0,0,0-2.56l-18.69-18.69a117.36,117.36,0,0,0,34.91-78.08,5.45,5.45,0,0,0-5.44-5.72H449a5.44,5.44,0,0,0-5.26,6.85l13.12,48.95a5.33,5.33,0,0,1,0,2.86L429,388.19a17.87,17.87,0,0,0-24.71-24.71l-5.87-5.86a1.8,1.8,0,0,0-2.56,0l-.95.95A1.82,1.82,0,0,0,394.88,361.13Z"/><path class="cls-1" d="M263.43,361.13l5.62,5.61A17.86,17.86,0,0,0,294.25,392L322,419.69a5.42,5.42,0,0,1-3.3.15l-44.4-11.9a5.43,5.43,0,0,0-6.85,5.25v50.72a10.67,10.67,0,0,0,11.66,10.64,117.21,117.21,0,0,0,67.78-30l18.79,18.79a1.82,1.82,0,0,0,2.56,0l.95-.95a1.82,1.82,0,0,0,0-2.56l-18.69-18.69a117.36,117.36,0,0,0,34.91-78.08,5.45,5.45,0,0,0-5.44-5.72H317.49a5.44,5.44,0,0,0-5.25,6.85l13.12,48.95a5.43,5.43,0,0,1,0,2.86l-27.83-27.84a17.87,17.87,0,0,0-24.72-24.71l-5.86-5.86a1.8,1.8,0,0,0-2.56,0l-.95.95A1.82,1.82,0,0,0,263.43,361.13Z"/><path class="cls-1" d="M132,361.13l5.62,5.61A17.86,17.86,0,0,0,162.8,392l27.74,27.74a5.42,5.42,0,0,1-3.3.15l-44.4-11.9a5.43,5.43,0,0,0-6.85,5.25v50.72a10.67,10.67,0,0,0,11.66,10.64,117.21,117.21,0,0,0,67.78-30l18.79,18.79a1.82,1.82,0,0,0,2.56,0l.95-.95a1.82,1.82,0,0,0,0-2.56L219,441.17a117.3,117.3,0,0,0,34.9-78.08,5.45,5.45,0,0,0-5.43-5.72H186a5.44,5.44,0,0,0-5.25,6.85l13.12,48.95a5.43,5.43,0,0,1,0,2.86l-27.84-27.84a17.87,17.87,0,0,0-24.71-24.71l-5.86-5.86a1.8,1.8,0,0,0-2.56,0l-1,.95A1.82,1.82,0,0,0,132,361.13Z"/><path class="cls-1" d="M.53,361.13l5.61,5.61A17.87,17.87,0,0,0,31.35,392l27.74,27.74a5.42,5.42,0,0,1-3.3.15l-44.4-11.9a5.43,5.43,0,0,0-6.85,5.25v50.72A10.67,10.67,0,0,0,16.2,474.55a117.21,117.21,0,0,0,67.78-30l18.79,18.79a1.82,1.82,0,0,0,2.56,0l1-.95a1.82,1.82,0,0,0,0-2.56L87.59,441.17a117.35,117.35,0,0,0,34.9-78.08,5.45,5.45,0,0,0-5.43-5.72H54.59a5.43,5.43,0,0,0-5.25,6.85l13.11,48.95a5.34,5.34,0,0,1,0,2.86L34.61,388.19A17.87,17.87,0,0,0,9.9,363.48L4,357.62a1.8,1.8,0,0,0-2.56,0l-.95.95A1.8,1.8,0,0,0,.53,361.13Z"/><path class="cls-1" d="M122,589.6,116.36,584a17.87,17.87,0,0,0-25.21-25.21L63.41,531a5.35,5.35,0,0,1,3.3-.15l44.4,11.9a5.44,5.44,0,0,0,6.85-5.26V486.81a10.67,10.67,0,0,0-11.66-10.64,117.27,117.27,0,0,0-67.78,30L19.73,487.36a1.8,1.8,0,0,0-2.56,0l-1,.95a1.82,1.82,0,0,0,0,2.56l18.69,18.69A117.31,117.31,0,0,0,0,587.64a5.44,5.44,0,0,0,5.43,5.71H67.91a5.43,5.43,0,0,0,5.25-6.84l-13.11-49a5.34,5.34,0,0,1,0-2.86l27.84,27.84a17.86,17.86,0,0,0,24.71,24.71l5.86,5.87a1.82,1.82,0,0,0,2.56,0l1-1A1.8,1.8,0,0,0,122,589.6Z"/><path class="cls-1" d="M253.42,589.6,247.81,584a17.87,17.87,0,0,0-25.21-25.21L194.86,531a5.35,5.35,0,0,1,3.3-.15l44.4,11.9a5.44,5.44,0,0,0,6.85-5.26V486.81a10.67,10.67,0,0,0-11.66-10.64,117.27,117.27,0,0,0-67.78,30l-18.78-18.78a1.8,1.8,0,0,0-2.56,0l-.95.95a1.8,1.8,0,0,0,0,2.56l18.68,18.69a117.35,117.35,0,0,0-34.9,78.08,5.44,5.44,0,0,0,5.43,5.71h62.47a5.44,5.44,0,0,0,5.26-6.84l-13.12-49a5.44,5.44,0,0,1,0-2.86l27.84,27.84a17.86,17.86,0,0,0,24.71,24.71l5.86,5.87a1.82,1.82,0,0,0,2.56,0l.95-1A1.8,1.8,0,0,0,253.42,589.6Z"/><path class="cls-1" d="M384.87,589.6,379.26,584a17.87,17.87,0,0,0-25.21-25.21L326.32,531a5.32,5.32,0,0,1,3.29-.15L374,542.79a5.44,5.44,0,0,0,6.84-5.26V486.81a10.67,10.67,0,0,0-11.66-10.64,117.3,117.3,0,0,0-67.78,30l-18.78-18.78a1.8,1.8,0,0,0-2.56,0l-.95.95a1.8,1.8,0,0,0,0,2.56l18.69,18.69a117.32,117.32,0,0,0-34.91,78.08,5.44,5.44,0,0,0,5.44,5.71h62.46a5.44,5.44,0,0,0,5.26-6.84l-13.12-49a5.44,5.44,0,0,1,0-2.86l27.84,27.84a17.86,17.86,0,0,0,24.71,24.71l5.86,5.87a1.82,1.82,0,0,0,2.56,0l.95-1A1.8,1.8,0,0,0,384.87,589.6Z"/><path class="cls-1" d="M516.33,589.6,510.71,584a17.87,17.87,0,0,0-25.21-25.21L457.77,531a5.32,5.32,0,0,1,3.29-.15l44.41,11.9a5.45,5.45,0,0,0,6.85-5.26V486.81a10.68,10.68,0,0,0-11.66-10.64,117.27,117.27,0,0,0-67.78,30l-18.79-18.78a1.8,1.8,0,0,0-2.56,0l-.95.95a1.8,1.8,0,0,0,0,2.56l18.69,18.69a117.32,117.32,0,0,0-34.91,78.08,5.44,5.44,0,0,0,5.44,5.71h62.46a5.44,5.44,0,0,0,5.26-6.84l-13.12-49a5.33,5.33,0,0,1,0-2.86l27.83,27.84A17.86,17.86,0,0,0,507,587.24l5.87,5.87a1.82,1.82,0,0,0,2.56,0l1-1A1.82,1.82,0,0,0,516.33,589.6Z"/><path class="cls-1" d="M647.78,589.6,642.16,584A17.87,17.87,0,0,0,617,558.77L589.22,531a5.34,5.34,0,0,1,3.3-.15l44.4,11.9a5.44,5.44,0,0,0,6.85-5.26V486.81a10.67,10.67,0,0,0-11.66-10.64,117.27,117.27,0,0,0-67.78,30l-18.79-18.78a1.8,1.8,0,0,0-2.56,0l-1,.95a1.82,1.82,0,0,0,0,2.56l18.69,18.69a117.32,117.32,0,0,0-34.91,78.08,5.45,5.45,0,0,0,5.44,5.71h62.47a5.43,5.43,0,0,0,5.25-6.84l-13.12-49a5.43,5.43,0,0,1,0-2.86l27.83,27.84a17.87,17.87,0,0,0,24.72,24.71l5.86,5.87a1.82,1.82,0,0,0,2.56,0l.95-1A1.82,1.82,0,0,0,647.78,589.6Z"/><path class="cls-1" d="M779.23,589.6,773.61,584a17.87,17.87,0,0,0-25.2-25.21L720.67,531a5.34,5.34,0,0,1,3.3-.15l44.4,11.9a5.44,5.44,0,0,0,6.85-5.26V486.81a10.67,10.67,0,0,0-11.66-10.64,117.27,117.27,0,0,0-67.78,30L677,487.36a1.8,1.8,0,0,0-2.56,0l-.95.95a1.82,1.82,0,0,0,0,2.56l18.69,18.69a117.26,117.26,0,0,0-34.9,78.08,5.44,5.44,0,0,0,5.43,5.71h62.47a5.43,5.43,0,0,0,5.25-6.84l-13.12-49a5.43,5.43,0,0,1,0-2.86l27.84,27.84a17.86,17.86,0,0,0,24.71,24.71l5.86,5.87a1.82,1.82,0,0,0,2.56,0l1-1A1.82,1.82,0,0,0,779.23,589.6Z"/><path class="cls-1" d="M910.68,589.6,905.07,584a17.87,17.87,0,0,0-25.21-25.21L852.12,531a5.35,5.35,0,0,1,3.3-.15l44.4,11.9a5.44,5.44,0,0,0,6.85-5.26V486.81A10.67,10.67,0,0,0,895,476.17a117.27,117.27,0,0,0-67.78,30l-18.79-18.78a1.8,1.8,0,0,0-2.56,0l-1,.95a1.82,1.82,0,0,0,0,2.56l18.69,18.69a117.31,117.31,0,0,0-34.9,78.08,5.44,5.44,0,0,0,5.43,5.71h62.47a5.43,5.43,0,0,0,5.25-6.84l-13.11-49a5.34,5.34,0,0,1,0-2.86l27.84,27.84a17.86,17.86,0,0,0,24.71,24.71l5.86,5.87a1.82,1.82,0,0,0,2.56,0l.95-1A1.8,1.8,0,0,0,910.68,589.6Z"/><path class="cls-1" d="M789.24,599.19l5.61,5.62A17.86,17.86,0,0,0,820.06,630l27.74,27.74a5.42,5.42,0,0,1-3.3.15L800.1,646a5.44,5.44,0,0,0-6.85,5.25V702a10.68,10.68,0,0,0,11.66,10.65,117.29,117.29,0,0,0,67.78-30l18.79,18.79a1.82,1.82,0,0,0,2.56,0l1-.95a1.82,1.82,0,0,0,0-2.56L876.3,679.23a117.35,117.35,0,0,0,34.9-78.08,5.45,5.45,0,0,0-5.43-5.72H843.3a5.43,5.43,0,0,0-5.25,6.85l13.11,49a5.34,5.34,0,0,1,0,2.86l-27.84-27.84a17.87,17.87,0,0,0-24.71-24.71l-5.86-5.86a1.82,1.82,0,0,0-2.56,0l-1,1A1.8,1.8,0,0,0,789.24,599.19Z"/><path class="cls-1" d="M657.79,599.19l5.61,5.62A17.86,17.86,0,0,0,688.61,630l27.74,27.74a5.42,5.42,0,0,1-3.3.15L668.64,646a5.43,5.43,0,0,0-6.84,5.25V702a10.68,10.68,0,0,0,11.66,10.65,117.29,117.29,0,0,0,67.78-30L760,701.43a1.82,1.82,0,0,0,2.56,0l.95-.95a1.8,1.8,0,0,0,0-2.56l-18.68-18.69a117.39,117.39,0,0,0,34.9-78.08,5.45,5.45,0,0,0-5.43-5.72H711.85a5.44,5.44,0,0,0-5.26,6.85l13.12,49a5.44,5.44,0,0,1,0,2.86l-27.84-27.84a17.87,17.87,0,0,0-24.71-24.71l-5.86-5.86a1.82,1.82,0,0,0-2.56,0l-1,1A1.8,1.8,0,0,0,657.79,599.19Z"/><path class="cls-1" d="M526.33,599.19l5.62,5.62A17.86,17.86,0,0,0,557.16,630l27.73,27.74a5.39,5.39,0,0,1-3.29.15L537.19,646a5.43,5.43,0,0,0-6.84,5.25V702A10.68,10.68,0,0,0,542,712.62a117.31,117.31,0,0,0,67.78-30l18.78,18.79a1.82,1.82,0,0,0,2.56,0l1-.95a1.8,1.8,0,0,0,0-2.56l-18.69-18.69a117.36,117.36,0,0,0,34.91-78.08,5.45,5.45,0,0,0-5.44-5.72H580.4a5.44,5.44,0,0,0-5.26,6.85l13.12,49a5.44,5.44,0,0,1,0,2.86l-27.84-27.84a17.87,17.87,0,0,0-24.71-24.71l-5.87-5.86a1.81,1.81,0,0,0-2.55,0l-1,1A1.82,1.82,0,0,0,526.33,599.19Z"/><path class="cls-1" d="M394.88,599.19l5.62,5.62A17.86,17.86,0,0,0,425.7,630l27.74,27.74a5.39,5.39,0,0,1-3.29.15L405.74,646a5.44,5.44,0,0,0-6.85,5.25V702a10.69,10.69,0,0,0,11.66,10.65,117.29,117.29,0,0,0,67.78-30l18.79,18.79a1.82,1.82,0,0,0,2.56,0l.95-.95a1.82,1.82,0,0,0,0-2.56l-18.69-18.69a117.36,117.36,0,0,0,34.91-78.08,5.45,5.45,0,0,0-5.44-5.72H449a5.44,5.44,0,0,0-5.26,6.85l13.12,49a5.33,5.33,0,0,1,0,2.86L429,626.25a17.87,17.87,0,0,0-24.71-24.71l-5.87-5.86a1.82,1.82,0,0,0-2.56,0l-.95,1A1.82,1.82,0,0,0,394.88,599.19Z"/><path class="cls-1" d="M263.43,599.19l5.62,5.62a17.86,17.86,0,0,0,25.2,25.2L322,657.75a5.42,5.42,0,0,1-3.3.15L274.29,646a5.44,5.44,0,0,0-6.85,5.25V702a10.68,10.68,0,0,0,11.66,10.65,117.29,117.29,0,0,0,67.78-30l18.79,18.79a1.82,1.82,0,0,0,2.56,0l.95-.95a1.82,1.82,0,0,0,0-2.56l-18.69-18.69a117.36,117.36,0,0,0,34.91-78.08,5.45,5.45,0,0,0-5.44-5.72H317.49a5.44,5.44,0,0,0-5.25,6.85l13.12,49a5.43,5.43,0,0,1,0,2.86l-27.83-27.84a17.87,17.87,0,0,0-24.72-24.71l-5.86-5.86a1.82,1.82,0,0,0-2.56,0l-.95,1A1.82,1.82,0,0,0,263.43,599.19Z"/><path class="cls-1" d="M132,599.19l5.62,5.62A17.86,17.86,0,0,0,162.8,630l27.74,27.74a5.42,5.42,0,0,1-3.3.15L142.84,646a5.44,5.44,0,0,0-6.85,5.25V702a10.68,10.68,0,0,0,11.66,10.65,117.29,117.29,0,0,0,67.78-30l18.79,18.79a1.82,1.82,0,0,0,2.56,0l.95-.95a1.82,1.82,0,0,0,0-2.56L219,679.23a117.3,117.3,0,0,0,34.9-78.08,5.45,5.45,0,0,0-5.43-5.72H186a5.44,5.44,0,0,0-5.25,6.85l13.12,49a5.43,5.43,0,0,1,0,2.86l-27.84-27.84a17.87,17.87,0,0,0-24.71-24.71l-5.86-5.86a1.82,1.82,0,0,0-2.56,0l-1,1A1.82,1.82,0,0,0,132,599.19Z"/><path class="cls-1" d="M.53,599.19l5.61,5.62A17.86,17.86,0,0,0,31.35,630l27.74,27.74a5.42,5.42,0,0,1-3.3.15L11.39,646a5.44,5.44,0,0,0-6.85,5.25V702A10.68,10.68,0,0,0,16.2,712.62a117.29,117.29,0,0,0,67.78-30l18.79,18.79a1.82,1.82,0,0,0,2.56,0l1-.95a1.82,1.82,0,0,0,0-2.56L87.59,679.23a117.35,117.35,0,0,0,34.9-78.08,5.45,5.45,0,0,0-5.43-5.72H54.59a5.43,5.43,0,0,0-5.25,6.85l13.11,49a5.34,5.34,0,0,1,0,2.86L34.61,626.25A17.87,17.87,0,0,0,9.9,601.54L4,595.68a1.82,1.82,0,0,0-2.56,0l-.95,1A1.8,1.8,0,0,0,.53,599.19Z"/><path class="cls-1" d="M122,827.66,116.36,822a17.87,17.87,0,0,0-25.21-25.21L63.41,769.1a5.35,5.35,0,0,1,3.3-.15l44.4,11.9a5.44,5.44,0,0,0,6.85-5.26V724.88a10.68,10.68,0,0,0-11.66-10.65,117.27,117.27,0,0,0-67.78,30L19.73,725.42a1.8,1.8,0,0,0-2.56,0l-1,1a1.82,1.82,0,0,0,0,2.56l18.69,18.69A117.33,117.33,0,0,0,0,825.7a5.44,5.44,0,0,0,5.43,5.71H67.91a5.43,5.43,0,0,0,5.25-6.84l-13.11-49a5.34,5.34,0,0,1,0-2.86l27.84,27.84A17.86,17.86,0,0,0,112.6,825.3l5.86,5.87a1.82,1.82,0,0,0,2.56,0l1-.95A1.8,1.8,0,0,0,122,827.66Z"/><path class="cls-1" d="M253.42,827.66,247.81,822a17.87,17.87,0,0,0-25.21-25.21L194.86,769.1a5.35,5.35,0,0,1,3.3-.15l44.4,11.9a5.44,5.44,0,0,0,6.85-5.26V724.88a10.68,10.68,0,0,0-11.66-10.65,117.27,117.27,0,0,0-67.78,30l-18.78-18.78a1.8,1.8,0,0,0-2.56,0l-.95,1a1.8,1.8,0,0,0,0,2.56l18.68,18.69a117.37,117.37,0,0,0-34.9,78.08,5.44,5.44,0,0,0,5.43,5.71h62.47a5.44,5.44,0,0,0,5.26-6.84l-13.12-49a5.44,5.44,0,0,1,0-2.86l27.84,27.84a17.86,17.86,0,0,0,24.71,24.71l5.86,5.87a1.82,1.82,0,0,0,2.56,0l.95-.95A1.8,1.8,0,0,0,253.42,827.66Z"/><path class="cls-1" d="M384.87,827.66,379.26,822a17.87,17.87,0,0,0-25.21-25.21L326.32,769.1a5.32,5.32,0,0,1,3.29-.15L374,780.85a5.44,5.44,0,0,0,6.84-5.26V724.88a10.68,10.68,0,0,0-11.66-10.65,117.3,117.3,0,0,0-67.78,30l-18.78-18.78a1.8,1.8,0,0,0-2.56,0l-.95,1a1.8,1.8,0,0,0,0,2.56l18.69,18.69a117.34,117.34,0,0,0-34.91,78.08,5.44,5.44,0,0,0,5.44,5.71h62.46a5.44,5.44,0,0,0,5.26-6.84l-13.12-49a5.44,5.44,0,0,1,0-2.86l27.84,27.84A17.86,17.86,0,0,0,375.5,825.3l5.86,5.87a1.82,1.82,0,0,0,2.56,0l.95-.95A1.8,1.8,0,0,0,384.87,827.66Z"/><path class="cls-1" d="M516.33,827.66,510.71,822a17.87,17.87,0,0,0-25.21-25.21L457.77,769.1a5.32,5.32,0,0,1,3.29-.15l44.41,11.9a5.45,5.45,0,0,0,6.85-5.26V724.88a10.69,10.69,0,0,0-11.66-10.65,117.27,117.27,0,0,0-67.78,30l-18.79-18.78a1.8,1.8,0,0,0-2.56,0l-.95,1a1.8,1.8,0,0,0,0,2.56l18.69,18.69a117.34,117.34,0,0,0-34.91,78.08,5.44,5.44,0,0,0,5.44,5.71h62.46a5.44,5.44,0,0,0,5.26-6.84l-13.12-49a5.33,5.33,0,0,1,0-2.86l27.83,27.84A17.86,17.86,0,0,0,507,825.3l5.87,5.87a1.82,1.82,0,0,0,2.56,0l1-.95A1.82,1.82,0,0,0,516.33,827.66Z"/><path class="cls-1" d="M647.78,827.66,642.16,822A17.87,17.87,0,0,0,617,796.83L589.22,769.1a5.34,5.34,0,0,1,3.3-.15l44.4,11.9a5.44,5.44,0,0,0,6.85-5.26V724.88a10.68,10.68,0,0,0-11.66-10.65,117.27,117.27,0,0,0-67.78,30l-18.79-18.78a1.8,1.8,0,0,0-2.56,0l-1,1a1.82,1.82,0,0,0,0,2.56l18.69,18.69a117.34,117.34,0,0,0-34.91,78.08,5.45,5.45,0,0,0,5.44,5.71h62.47a5.43,5.43,0,0,0,5.25-6.84l-13.12-49a5.43,5.43,0,0,1,0-2.86l27.83,27.84a17.87,17.87,0,0,0,24.72,24.71l5.86,5.87a1.82,1.82,0,0,0,2.56,0l.95-.95A1.82,1.82,0,0,0,647.78,827.66Z"/><path class="cls-1" d="M779.23,827.66,773.61,822a17.87,17.87,0,0,0-25.2-25.21L720.67,769.1A5.34,5.34,0,0,1,724,769l44.4,11.9a5.44,5.44,0,0,0,6.85-5.26V724.88a10.68,10.68,0,0,0-11.66-10.65,117.27,117.27,0,0,0-67.78,30L677,725.42a1.8,1.8,0,0,0-2.56,0l-.95,1a1.82,1.82,0,0,0,0,2.56l18.69,18.69a117.28,117.28,0,0,0-34.9,78.08,5.44,5.44,0,0,0,5.43,5.71h62.47a5.43,5.43,0,0,0,5.25-6.84l-13.12-49a5.43,5.43,0,0,1,0-2.86l27.84,27.84a17.86,17.86,0,0,0,24.71,24.71l5.86,5.87a1.82,1.82,0,0,0,2.56,0l1-.95A1.82,1.82,0,0,0,779.23,827.66Z"/><path class="cls-1" d="M910.68,827.66,905.07,822a17.87,17.87,0,0,0-25.21-25.21L852.12,769.1a5.35,5.35,0,0,1,3.3-.15l44.4,11.9a5.44,5.44,0,0,0,6.85-5.26V724.88A10.68,10.68,0,0,0,895,714.23a117.27,117.27,0,0,0-67.78,30l-18.79-18.78a1.8,1.8,0,0,0-2.56,0l-1,1a1.82,1.82,0,0,0,0,2.56l18.69,18.69a117.33,117.33,0,0,0-34.9,78.08,5.44,5.44,0,0,0,5.43,5.71h62.47a5.43,5.43,0,0,0,5.25-6.84l-13.11-49a5.34,5.34,0,0,1,0-2.86l27.84,27.84a17.86,17.86,0,0,0,24.71,24.71l5.86,5.87a1.82,1.82,0,0,0,2.56,0l.95-.95A1.8,1.8,0,0,0,910.68,827.66Z"/><path class="cls-1" d="M789.24,837.25l5.61,5.62a17.86,17.86,0,0,0,25.21,25.2l27.74,27.74a5.42,5.42,0,0,1-3.3.15l-44.4-11.9a5.44,5.44,0,0,0-6.85,5.25V940a10.68,10.68,0,0,0,11.66,10.65,117.29,117.29,0,0,0,67.78-30l18.79,18.79a1.82,1.82,0,0,0,2.56,0l1-1a1.82,1.82,0,0,0,0-2.56L876.3,917.29a117.35,117.35,0,0,0,34.9-78.08,5.45,5.45,0,0,0-5.43-5.72H843.3a5.43,5.43,0,0,0-5.25,6.85l13.11,48.95a5.34,5.34,0,0,1,0,2.86l-27.84-27.84a17.87,17.87,0,0,0-24.71-24.71l-5.86-5.86a1.82,1.82,0,0,0-2.56,0l-1,1A1.8,1.8,0,0,0,789.24,837.25Z"/><path class="cls-1" d="M657.79,837.25l5.61,5.62a17.86,17.86,0,0,0,25.21,25.2l27.74,27.74a5.42,5.42,0,0,1-3.3.15l-44.41-11.9a5.43,5.43,0,0,0-6.84,5.25V940a10.68,10.68,0,0,0,11.66,10.65,117.29,117.29,0,0,0,67.78-30L760,939.49a1.82,1.82,0,0,0,2.56,0l.95-1a1.8,1.8,0,0,0,0-2.56l-18.68-18.69a117.39,117.39,0,0,0,34.9-78.08,5.45,5.45,0,0,0-5.43-5.72H711.85a5.44,5.44,0,0,0-5.26,6.85l13.12,48.95a5.44,5.44,0,0,1,0,2.86l-27.84-27.84a17.87,17.87,0,0,0-24.71-24.71l-5.86-5.86a1.82,1.82,0,0,0-2.56,0l-1,1A1.8,1.8,0,0,0,657.79,837.25Z"/><path class="cls-1" d="M526.33,837.25l5.62,5.62a17.86,17.86,0,0,0,25.21,25.2l27.73,27.74a5.39,5.39,0,0,1-3.29.15l-44.41-11.9a5.43,5.43,0,0,0-6.84,5.25V940A10.68,10.68,0,0,0,542,950.68a117.31,117.31,0,0,0,67.78-30l18.78,18.79a1.82,1.82,0,0,0,2.56,0l1-1a1.8,1.8,0,0,0,0-2.56l-18.69-18.69a117.36,117.36,0,0,0,34.91-78.08,5.45,5.45,0,0,0-5.44-5.72H580.4a5.44,5.44,0,0,0-5.26,6.85l13.12,48.95a5.44,5.44,0,0,1,0,2.86l-27.84-27.84a17.87,17.87,0,0,0-24.71-24.71l-5.87-5.86a1.81,1.81,0,0,0-2.55,0l-1,1A1.82,1.82,0,0,0,526.33,837.25Z"/><path class="cls-1" d="M394.88,837.25l5.62,5.62a17.86,17.86,0,0,0,25.2,25.2l27.74,27.74a5.39,5.39,0,0,1-3.29.15l-44.41-11.9a5.44,5.44,0,0,0-6.85,5.25V940a10.69,10.69,0,0,0,11.66,10.65,117.29,117.29,0,0,0,67.78-30l18.79,18.79a1.82,1.82,0,0,0,2.56,0l.95-1a1.82,1.82,0,0,0,0-2.56l-18.69-18.69a117.36,117.36,0,0,0,34.91-78.08,5.45,5.45,0,0,0-5.44-5.72H449a5.44,5.44,0,0,0-5.26,6.85l13.12,48.95a5.33,5.33,0,0,1,0,2.86L429,864.31a17.87,17.87,0,0,0-24.71-24.71l-5.87-5.86a1.82,1.82,0,0,0-2.56,0l-.95,1A1.82,1.82,0,0,0,394.88,837.25Z"/><path class="cls-1" d="M263.43,837.25l5.62,5.62a17.86,17.86,0,0,0,25.2,25.2L322,895.81a5.42,5.42,0,0,1-3.3.15l-44.4-11.9a5.44,5.44,0,0,0-6.85,5.25V940a10.68,10.68,0,0,0,11.66,10.65,117.29,117.29,0,0,0,67.78-30l18.79,18.79a1.82,1.82,0,0,0,2.56,0l.95-1a1.82,1.82,0,0,0,0-2.56l-18.69-18.69a117.36,117.36,0,0,0,34.91-78.08,5.45,5.45,0,0,0-5.44-5.72H317.49a5.44,5.44,0,0,0-5.25,6.85l13.12,48.95a5.43,5.43,0,0,1,0,2.86l-27.83-27.84A17.87,17.87,0,0,0,272.8,839.6l-5.86-5.86a1.82,1.82,0,0,0-2.56,0l-.95,1A1.82,1.82,0,0,0,263.43,837.25Z"/><path class="cls-1" d="M132,837.25l5.62,5.62a17.86,17.86,0,0,0,25.2,25.2l27.74,27.74a5.42,5.42,0,0,1-3.3.15l-44.4-11.9a5.44,5.44,0,0,0-6.85,5.25V940a10.68,10.68,0,0,0,11.66,10.65,117.29,117.29,0,0,0,67.78-30l18.79,18.79a1.82,1.82,0,0,0,2.56,0l.95-1a1.82,1.82,0,0,0,0-2.56L219,917.29a117.3,117.3,0,0,0,34.9-78.08,5.45,5.45,0,0,0-5.43-5.72H186a5.44,5.44,0,0,0-5.25,6.85l13.12,48.95a5.43,5.43,0,0,1,0,2.86l-27.84-27.84a17.87,17.87,0,0,0-24.71-24.71l-5.86-5.86a1.82,1.82,0,0,0-2.56,0l-1,1A1.82,1.82,0,0,0,132,837.25Z"/><path class="cls-1" d="M.53,837.25l5.61,5.62a17.86,17.86,0,0,0,25.21,25.2l27.74,27.74a5.42,5.42,0,0,1-3.3.15l-44.4-11.9a5.44,5.44,0,0,0-6.85,5.25V940A10.68,10.68,0,0,0,16.2,950.68,117.29,117.29,0,0,0,84,920.7l18.79,18.79a1.82,1.82,0,0,0,2.56,0l1-1a1.82,1.82,0,0,0,0-2.56L87.59,917.29a117.35,117.35,0,0,0,34.9-78.08,5.45,5.45,0,0,0-5.43-5.72H54.59a5.43,5.43,0,0,0-5.25,6.85l13.11,48.95a5.34,5.34,0,0,1,0,2.86L34.61,864.31A17.87,17.87,0,0,0,9.9,839.6L4,833.74a1.82,1.82,0,0,0-2.56,0l-.95,1A1.8,1.8,0,0,0,.53,837.25Z"/></g></g></svg>